<?xml version="1.0" encoding="utf-8"?>
<!-- Generator: Adobe Illustrator 16.0.0, SVG Export Plug-In . SVG Version: 6.00 Build 0)  -->
<!DOCTYPE svg PUBLIC "-//W3C//DTD SVG 1.1//EN" "http://www.w3.org/Graphics/SVG/1.1/DTD/svg11.dtd" [
	<!ENTITY ns_extend "http://ns.adobe.com/Extensibility/1.0/">
	<!ENTITY ns_ai "http://ns.adobe.com/AdobeIllustrator/10.0/">
	<!ENTITY ns_graphs "http://ns.adobe.com/Graphs/1.0/">
	<!ENTITY ns_vars "http://ns.adobe.com/Variables/1.0/">
	<!ENTITY ns_imrep "http://ns.adobe.com/ImageReplacement/1.0/">
	<!ENTITY ns_sfw "http://ns.adobe.com/SaveForWeb/1.0/">
	<!ENTITY ns_custom "http://ns.adobe.com/GenericCustomNamespace/1.0/">
	<!ENTITY ns_adobe_xpath "http://ns.adobe.com/XPath/1.0/">
]>
<svg version="1.1" id="Layer_1" xmlns:x="&ns_extend;" xmlns:i="&ns_ai;" xmlns:graph="&ns_graphs;"
	 xmlns="http://www.w3.org/2000/svg" xmlns:xlink="http://www.w3.org/1999/xlink" x="0px" y="0px" width="1200px" height="1200px"
	 viewBox="0 0 1200 1200" enable-background="new 0 0 1200 1200" xml:space="preserve">
<metadata>
	<sfw  xmlns="&ns_sfw;">
		<slices></slices>
		<sliceSourceBounds  height="1200" width="1092.137" y="-299.5" x="53.432" bottomLeftOrigin="true"></sliceSourceBounds>
	</sfw>
</metadata>
<g>
	<g>
		<g>
			<path fill="#FFFFFF" d="M1125.844,1159.552h-33.708V101.124c0-11.173-9.056-20.224-20.224-20.224H694.383
				c-11.17,0-20.225,9.051-20.225,20.224v87.64H633.71v-87.64c0-11.173-9.056-20.224-20.224-20.224h-87.644V20.224
				C525.844,9.052,516.787,0,505.619,0s-20.224,9.052-20.224,20.224v60.675h-87.641c-11.171,0-20.225,9.051-20.225,20.224v87.64
				h-60.675c-11.171,0-20.225,9.052-20.225,20.224v168.54H128.093c-11.17,0-20.224,9.052-20.224,20.225v761.798H74.156
				c-11.17,0-20.224,9.052-20.224,20.225c0,11.174,9.056,20.227,20.224,20.227h1051.688c11.17,0,20.226-9.052,20.226-20.225
				C1146.068,1168.604,1137.012,1159.552,1125.844,1159.552z M417.978,121.348h175.279v67.416H417.978V121.348z M350.562,1159.552
				h-13.483v-33.708c0-11.173-9.057-20.225-20.225-20.225s-20.224,9.052-20.224,20.225v33.708h-13.484v-67.416h67.416V1159.552z
				 M485.393,640.448v34.793v484.311H391.01v-87.64c0-11.173-9.056-20.225-20.224-20.225H262.922
				c-11.17,0-20.224,9.052-20.224,20.225v87.64h-94.383V417.978h337.078V640.448L485.393,640.448z M505.617,377.529H337.078V229.214
				h337.078v391.011H525.844v-67.416h60.675c11.172,0,20.226-9.052,20.226-20.225c0-11.172-9.058-20.224-20.226-20.224h-60.675
				v-67.416h60.675c11.172,0,20.226-9.053,20.226-20.225c0-11.173-9.058-20.225-20.226-20.225h-60.675v-6.741
				C525.844,386.581,516.787,377.529,505.617,377.529z M862.922,1159.552H525.844V675.241v-14.566h337.078V1159.552z
				 M1051.687,1159.552H903.37V640.448v-26.967c0-11.174-9.057-20.226-20.225-20.226s-20.225,9.052-20.225,20.226v6.739h-40.448
				v-6.739c0-11.174-9.057-20.226-20.225-20.226s-20.224,9.052-20.224,20.226v6.739h-67.416V208.99v-87.642h337.078V1159.552
				L1051.687,1159.552z"/>
			<path fill="#FFFFFF" d="M613.483,1119.105c11.171,0,20.225-9.058,20.225-20.226V721.354c0-11.173-9.057-20.224-20.225-20.224
				s-20.225,9.051-20.225,20.224v377.529C593.26,1110.052,602.313,1119.105,613.483,1119.105z"/>
			<path fill="#FFFFFF" d="M694.383,1119.105c11.17,0,20.226-9.058,20.226-20.226V721.354c0-11.173-9.058-20.224-20.226-20.224
				s-20.225,9.051-20.225,20.224v377.529C674.156,1110.052,683.213,1119.105,694.383,1119.105z"/>
			<path fill="#FFFFFF" d="M775.279,1119.105c11.171,0,20.225-9.058,20.225-20.226V721.354c0-11.173-9.057-20.224-20.225-20.224
				s-20.225,9.051-20.225,20.224v377.529C755.056,1110.052,764.111,1119.105,775.279,1119.105z"/>
			<path fill="#FFFFFF" d="M802.247,256.179c11.17,0,20.224-9.051,20.224-20.224V208.99c0-11.172-9.056-20.224-20.224-20.224
				s-20.225,9.052-20.225,20.224v26.967C782.022,247.127,791.076,256.179,802.247,256.179z"/>
			<path fill="#FFFFFF" d="M883.146,256.179c11.17,0,20.225-9.051,20.225-20.224V208.99c0-11.172-9.057-20.224-20.225-20.224
				s-20.225,9.052-20.225,20.224v26.967C862.922,247.127,871.976,256.179,883.146,256.179z"/>
			<path fill="#FFFFFF" d="M964.045,256.179c11.171,0,20.226-9.051,20.226-20.224V208.99c0-11.172-9.058-20.224-20.226-20.224
				s-20.224,9.052-20.224,20.224v26.967C943.821,247.127,952.875,256.179,964.045,256.179z"/>
			<path fill="#FFFFFF" d="M802.247,391.01c11.17,0,20.224-9.052,20.224-20.224v-26.967c0-11.173-9.056-20.225-20.224-20.225
				s-20.225,9.052-20.225,20.225v26.967C782.022,381.958,791.076,391.01,802.247,391.01z"/>
			<path fill="#FFFFFF" d="M883.146,391.01c11.17,0,20.225-9.052,20.225-20.224v-26.967c0-11.173-9.057-20.225-20.225-20.225
				s-20.225,9.052-20.225,20.225v26.967C862.922,381.958,871.976,391.01,883.146,391.01z"/>
			<path fill="#FFFFFF" d="M964.045,391.01c11.171,0,20.226-9.052,20.226-20.224v-26.967c0-11.173-9.058-20.225-20.226-20.225
				s-20.224,9.052-20.224,20.225v26.967C943.821,381.958,952.875,391.01,964.045,391.01z"/>
			<path fill="#FFFFFF" d="M802.247,525.844c11.17,0,20.224-9.052,20.224-20.225v-26.967c0-11.174-9.056-20.226-20.224-20.226
				s-20.225,9.052-20.225,20.226v26.967C782.022,516.79,791.076,525.844,802.247,525.844z"/>
			<path fill="#FFFFFF" d="M883.146,525.844c11.17,0,20.225-9.052,20.225-20.225v-26.967c0-11.174-9.057-20.226-20.225-20.226
				s-20.225,9.052-20.225,20.226v26.967C862.922,516.79,871.976,525.844,883.146,525.844z"/>
			<path fill="#FFFFFF" d="M964.045,525.844c11.171,0,20.226-9.052,20.226-20.225v-26.967c0-11.174-9.058-20.226-20.226-20.226
				s-20.224,9.052-20.224,20.226v26.967C943.821,516.79,952.875,525.844,964.045,525.844z"/>
			<path fill="#FFFFFF" d="M235.955,579.775c11.17,0,20.224-9.052,20.224-20.225v-26.968c0-11.172-9.056-20.224-20.224-20.224
				s-20.224,9.052-20.224,20.224v26.968C215.73,570.722,224.787,579.775,235.955,579.775z"/>
			<path fill="#FFFFFF" d="M316.854,579.775c11.171,0,20.225-9.052,20.225-20.225v-26.968c0-11.172-9.057-20.224-20.225-20.224
				s-20.224,9.052-20.224,20.224v26.968C296.63,570.722,305.684,579.775,316.854,579.775z"/>
			<path fill="#FFFFFF" d="M397.753,579.775c11.171,0,20.225-9.052,20.225-20.225v-26.968c0-11.172-9.057-20.224-20.225-20.224
				s-20.224,9.052-20.224,20.224v26.968C377.529,570.722,386.583,579.775,397.753,579.775z"/>
			<path fill="#FFFFFF" d="M235.955,714.607c11.17,0,20.224-9.053,20.224-20.226v-26.967c0-11.173-9.056-20.225-20.224-20.225
				s-20.224,9.052-20.224,20.225v26.967C215.73,705.553,224.787,714.607,235.955,714.607z"/>
			<path fill="#FFFFFF" d="M316.854,714.607c11.171,0,20.225-9.053,20.225-20.226v-26.967c0-11.173-9.057-20.225-20.225-20.225
				s-20.224,9.052-20.224,20.225v26.967C296.63,705.553,305.684,714.607,316.854,714.607z"/>
			<path fill="#FFFFFF" d="M397.753,714.607c11.171,0,20.225-9.053,20.225-20.226v-26.967c0-11.173-9.057-20.225-20.225-20.225
				s-20.224,9.052-20.224,20.225v26.967C377.529,705.553,386.583,714.607,397.753,714.607z"/>
			<path fill="#FFFFFF" d="M235.955,849.438c11.17,0,20.224-9.052,20.224-20.225v-26.967c0-11.173-9.056-20.225-20.224-20.225
				s-20.224,9.052-20.224,20.225v26.967C215.73,840.387,224.787,849.438,235.955,849.438z"/>
			<path fill="#FFFFFF" d="M316.854,849.438c11.171,0,20.225-9.052,20.225-20.225v-26.967c0-11.173-9.057-20.225-20.225-20.225
				s-20.224,9.052-20.224,20.225v26.967C296.63,840.387,305.684,849.438,316.854,849.438z"/>
			<path fill="#FFFFFF" d="M397.753,849.438c11.171,0,20.225-9.052,20.225-20.225v-26.967c0-11.173-9.057-20.225-20.225-20.225
				s-20.224,9.052-20.224,20.225v26.967C377.529,840.387,386.583,849.438,397.753,849.438z"/>
			<path fill="#FFFFFF" d="M235.955,984.27c11.17,0,20.224-9.052,20.224-20.225v-26.967c0-11.173-9.056-20.225-20.224-20.225
				s-20.224,9.052-20.224,20.225v26.967C215.73,975.218,224.787,984.27,235.955,984.27z"/>
			<path fill="#FFFFFF" d="M316.854,984.27c11.171,0,20.225-9.052,20.225-20.225v-26.967c0-11.173-9.057-20.225-20.225-20.225
				s-20.224,9.052-20.224,20.225v26.967C296.63,975.218,305.684,984.27,316.854,984.27z"/>
			<path fill="#FFFFFF" d="M397.753,984.27c11.171,0,20.225-9.052,20.225-20.225v-26.967c0-11.173-9.057-20.225-20.225-20.225
				s-20.224,9.052-20.224,20.225v26.967C377.529,975.218,386.583,984.27,397.753,984.27z"/>
			<path fill="#FFFFFF" d="M964.045,660.675c11.171,0,20.226-9.052,20.226-20.224v-26.968c0-11.174-9.058-20.225-20.226-20.225
				s-20.224,9.051-20.224,20.225v26.968C943.821,651.621,952.875,660.675,964.045,660.675z"/>
			<path fill="#FFFFFF" d="M964.045,795.506c11.171,0,20.226-9.051,20.226-20.224v-26.968c0-11.173-9.058-20.225-20.226-20.225
				s-20.224,9.052-20.224,20.225v26.968C943.821,786.452,952.875,795.506,964.045,795.506z"/>
			<path fill="#FFFFFF" d="M964.045,930.338c11.171,0,20.226-9.052,20.226-20.225v-26.967c0-11.174-9.058-20.226-20.226-20.226
				s-20.224,9.052-20.224,20.226v26.967C943.821,921.283,952.875,930.338,964.045,930.338z"/>
			<path fill="#FFFFFF" d="M964.045,1065.169c11.171,0,20.226-9.052,20.226-20.225v-26.968c0-11.173-9.058-20.225-20.226-20.225
				s-20.224,9.052-20.224,20.225v26.968C943.821,1056.115,952.875,1065.169,964.045,1065.169z"/>
			<path fill="#FFFFFF" d="M606.74,316.854c0-11.173-9.057-20.224-20.225-20.224H424.718c-11.17,0-20.224,9.051-20.224,20.224
				s9.056,20.225,20.224,20.225h161.799C597.687,337.078,606.74,328.026,606.74,316.854z"/>
		</g>
	</g>
</g>
</svg>
