<?xml version="1.0" encoding="utf-8"?>
<!-- Generator: Adobe Illustrator 16.0.0, SVG Export Plug-In . SVG Version: 6.00 Build 0)  -->
<!DOCTYPE svg PUBLIC "-//W3C//DTD SVG 1.1//EN" "http://www.w3.org/Graphics/SVG/1.1/DTD/svg11.dtd" [
	<!ENTITY ns_extend "http://ns.adobe.com/Extensibility/1.0/">
	<!ENTITY ns_ai "http://ns.adobe.com/AdobeIllustrator/10.0/">
	<!ENTITY ns_graphs "http://ns.adobe.com/Graphs/1.0/">
	<!ENTITY ns_vars "http://ns.adobe.com/Variables/1.0/">
	<!ENTITY ns_imrep "http://ns.adobe.com/ImageReplacement/1.0/">
	<!ENTITY ns_sfw "http://ns.adobe.com/SaveForWeb/1.0/">
	<!ENTITY ns_custom "http://ns.adobe.com/GenericCustomNamespace/1.0/">
	<!ENTITY ns_adobe_xpath "http://ns.adobe.com/XPath/1.0/">
]>
<svg version="1.1" id="Layer_1" xmlns:x="&ns_extend;" xmlns:i="&ns_ai;" xmlns:graph="&ns_graphs;"
	 xmlns="http://www.w3.org/2000/svg" xmlns:xlink="http://www.w3.org/1999/xlink" x="0px" y="0px" width="512px" height="512px"
	 viewBox="0 0 512 512" enable-background="new 0 0 512 512" xml:space="preserve">
<metadata>
	<sfw  xmlns="&ns_sfw;">
		<slices></slices>
		<sliceSourceBounds  width="506.477" height="512.422" x="-150.977" y="-155.922" bottomLeftOrigin="true"></sliceSourceBounds>
		<optimizationSettings>
			<targetSettings  fileFormat="PNG24Format" targetSettingsID="0">
				<PNG24Format  transparency="true" interlaced="false" noMatteColor="false" matteColor="#FFFFFF" filtered="false">
					</PNG24Format>
			</targetSettings>
		</optimizationSettings>
	</sfw>
</metadata>
<title>006 - Home Insurance</title>
<desc>Created with Sketch.</desc>
<g id="Health-Insurance">
	<path d="M482.78,34.161h-68.18V8.541c0-4.717-4.361-8.541-9.74-8.541H190.582c-5.379,0-9.74,3.824-9.74,8.541v25.621h-68.18
		c-16.137,0-29.219,11.471-29.219,25.622v17.849c-28.083,4.184-48.647,25.497-48.7,50.474v17.081c0,4.717,4.361,8.541,9.74,8.541
		v8.541c0.044,13.37,7.26,25.942,19.48,33.939v9.394c-33.513,4.282-58.383,29.455-58.44,59.15v68.323c0,4.716,4.36,8.541,9.74,8.541
		h19.48V461.18c-16.138,0-29.22,11.471-29.22,25.621v17.081c0,4.717,4.36,8.54,9.74,8.54h58.44c1.507,0.014,2.998-0.278,4.354-0.854
		l15.126-6.679l15.126,6.636c1.352,0.591,2.843,0.897,4.354,0.896h58.44c5.379,0,9.74-3.823,9.74-8.54v-17.081
		c-0.032-2.915-0.639-5.805-1.792-8.54H482.78c16.136,0,29.22-11.472,29.22-25.621l0,0V59.783
		C512,45.632,498.916,34.161,482.78,34.161z M200.322,17.081h194.799v51.242H200.322V17.081z M180.842,51.242v25.621
		c0,4.717,4.361,8.54,9.74,8.54H404.86c5.379,0,9.74-3.823,9.74-8.54V51.242h19.479v375.775H151.622v-85.402h19.48
		c5.379,0,9.74-3.825,9.74-8.541v-68.323c-0.008-15.587-7.004-30.546-19.48-41.651V51.242H180.842z M122.402,196.207
		c12.219-7.998,19.435-20.57,19.479-33.939v48.518c-6.155-2.589-12.723-4.343-19.479-5.201V196.207z M112.662,51.242h29.22v48.595
		c-8.935-11.799-23.034-19.835-38.959-22.205V59.783C102.923,55.065,107.283,51.242,112.662,51.242z M54.223,128.105
		c0-18.866,17.443-34.161,38.96-34.161c21.517,0,38.959,15.295,38.959,34.161v8.541h-1.666c-2.586,0.001-5.067-0.898-6.896-2.502
		l-13.772-12.076c-3.803-3.334-9.969-3.334-13.772,0l-8.075,7.08c-5.492,4.787-12.915,7.48-20.658,7.499H54.223V128.105z
		 M67.304,153.727c12.92,0.032,25.318-4.47,34.43-12.503l1.189-1.042l6.886,6.038c3.504,3.042,7.841,5.245,12.594,6.397v9.651
		c0,14.15-13.083,25.621-29.22,25.621c-16.138,0-29.22-11.471-29.22-25.621v-8.541H67.304z M93.183,204.969
		c3.271,0.003,6.534-0.283,9.74-0.854v5.867l-9.74,8.54l-9.74-8.54v-5.867C86.648,204.686,89.912,204.972,93.183,204.969z
		 M25.003,264.751c0.079-22.273,19.703-40.739,45.038-42.377l16.256,14.254c3.803,3.334,9.969,3.334,13.772,0l16.286-14.28
		c25.351,1.619,44.983,20.115,45.007,42.402v59.783h-9.74v-68.323h-19.48v68.323H54.223v-68.323h-19.48v68.323h-9.74V264.751z
		 M54.223,341.615h77.919V461.18h-29.219V358.695h-19.48V461.18h-29.22V341.615z M71.404,495.341H25.003v-8.54
		c0-4.717,4.36-8.54,9.74-8.54h48.7v11.802L71.404,495.341z M161.362,486.801v8.54h-46.401l-12.038-5.278v-11.802h48.699
		C157.001,478.261,161.362,482.084,161.362,486.801z M492.521,452.64c0,4.716-4.361,8.54-9.74,8.54H151.622v-17.081H434.08
		c10.758,0,19.48-7.646,19.48-17.081V51.242h29.22c5.379,0,9.74,3.823,9.74,8.541V452.64z"/>
	<path d="M259.287,330.111l33.165,18.686c3.21,1.811,7.329,1.811,10.538,0l33.166-18.686c30.736-17.23,49.304-47.036,49.225-79.024
		v-88.82c0-4.717-4.36-8.541-9.739-8.541h-155.84c-5.379,0-9.739,3.824-9.739,8.541v88.82
		C209.982,283.075,228.55,312.881,259.287,330.111z M229.542,170.808h136.36v80.279c0.068,26.177-15.121,50.568-40.275,64.667
		l-27.904,15.715l-27.905-15.732c-25.147-14.094-40.338-38.479-40.275-64.649V170.808z"/>
	<path d="M268.502,281.832c0,4.717,4.36,8.54,9.739,8.54h38.96c5.379,0,9.74-3.823,9.74-8.54v-17.081h19.479
		c5.379,0,9.74-3.823,9.74-8.54v-34.162c0-4.717-4.361-8.541-9.74-8.541h-19.479v-17.081c0-4.717-4.361-8.54-9.74-8.54h-38.96
		c-5.379,0-9.739,3.823-9.739,8.54v17.081h-19.481c-5.379,0-9.74,3.824-9.74,8.541v34.162c0,4.717,4.361,8.54,9.74,8.54h19.481
		V281.832z M258.761,247.67V230.59h19.48c5.379,0,9.741-3.824,9.741-8.541v-17.081h19.479v17.081c0,4.717,4.361,8.541,9.74,8.541
		h19.48v17.081h-19.48c-5.379,0-9.74,3.823-9.74,8.541v17.081h-19.479v-17.081c0-4.717-4.362-8.541-9.741-8.541H258.761z"/>
</g>
</svg>
