<?xml version="1.0" encoding="utf-8"?>
<!-- Generator: Adobe Illustrator 16.0.0, SVG Export Plug-In . SVG Version: 6.00 Build 0)  -->
<!DOCTYPE svg PUBLIC "-//W3C//DTD SVG 1.1//EN" "http://www.w3.org/Graphics/SVG/1.1/DTD/svg11.dtd" [
	<!ENTITY ns_extend "http://ns.adobe.com/Extensibility/1.0/">
	<!ENTITY ns_ai "http://ns.adobe.com/AdobeIllustrator/10.0/">
	<!ENTITY ns_graphs "http://ns.adobe.com/Graphs/1.0/">
	<!ENTITY ns_vars "http://ns.adobe.com/Variables/1.0/">
	<!ENTITY ns_imrep "http://ns.adobe.com/ImageReplacement/1.0/">
	<!ENTITY ns_sfw "http://ns.adobe.com/SaveForWeb/1.0/">
	<!ENTITY ns_custom "http://ns.adobe.com/GenericCustomNamespace/1.0/">
	<!ENTITY ns_adobe_xpath "http://ns.adobe.com/XPath/1.0/">
]>
<svg version="1.1" id="Layer_1" xmlns:x="&ns_extend;" xmlns:i="&ns_ai;" xmlns:graph="&ns_graphs;"
	 xmlns="http://www.w3.org/2000/svg" xmlns:xlink="http://www.w3.org/1999/xlink" x="0px" y="0px" width="512px" height="512px"
	 viewBox="0 0 512 512" enable-background="new 0 0 512 512" xml:space="preserve">
<metadata>
	<sfw  xmlns="&ns_sfw;">
		<slices></slices>
		<sliceSourceBounds  width="505.07" height="501.918" x="-152.586" y="-150.459" bottomLeftOrigin="true"></sliceSourceBounds>
		<optimizationSettings>
			<targetSettings  fileFormat="PNG24Format" targetSettingsID="0">
				<PNG24Format  transparency="true" interlaced="false" noMatteColor="false" matteColor="#FFFFFF" filtered="false">
					</PNG24Format>
			</targetSettings>
		</optimizationSettings>
	</sfw>
</metadata>
<title>006 - Home Insurance</title>
<desc>Created with Sketch.</desc>
<path d="M397.86,168.271c-10.967,0-19.853,7.639-19.853,17.06c0.001,9.421,8.891,17.059,19.854,17.057
	c10.964,0,19.854-7.638,19.853-17.059c0,0,0-0.001,0-0.001C417.702,175.911,408.82,168.28,397.86,168.271z M397.86,190.147
	c-3.097,0-5.606-2.158-5.606-4.818c0.001-2.661,2.513-4.818,5.608-4.817c3.096,0,5.606,2.156,5.606,4.817
	C403.465,187.988,400.956,190.145,397.86,190.147z"/>
<path d="M276.075,164.664c-10.967,0-19.856,7.637-19.856,17.059c-0.001,9.422,8.887,17.061,19.853,17.061
	c10.967,0,19.855-7.637,19.856-17.059c0,0,0,0,0-0.001C295.917,172.307,287.035,164.675,276.075,164.664z M276.075,186.542
	c-3.099,0-5.608-2.157-5.609-4.818c0-2.661,2.509-4.819,5.606-4.82s5.609,2.157,5.61,4.818c0,0,0,0.001,0,0.002
	C281.678,184.383,279.17,186.538,276.075,186.542z"/>
<path d="M373.779,213.686c-3.934,0-7.123,2.74-7.123,6.121l0,0c0.105,14.089-13.103,25.582-29.5,25.672
	c-16.396,0.089-29.773-11.259-29.878-25.348c-0.001-0.108-0.001-0.217,0-0.325c0-3.38-3.189-6.121-7.124-6.121
	c-3.932,0-7.123,2.74-7.123,6.121l0,0c-0.125,20.849,19.444,37.837,43.71,37.945c24.265,0.107,44.037-16.707,44.162-37.556
	c0.001-0.13,0.001-0.259,0-0.389C380.903,216.426,377.713,213.686,373.779,213.686L373.779,213.686L373.779,213.686z"/>
<path d="M286.649,121.721c1.891,0.002,3.702-0.643,5.037-1.792l24.901-21.395c2.781-2.39,2.782-6.266,0-8.656
	c-2.782-2.39-7.292-2.39-10.074,0l0,0l-24.896,21.393c-2.782,2.39-2.782,6.265-0.001,8.656c1.335,1.147,3.147,1.792,5.035,1.792
	L286.649,121.721z"/>
<path d="M317.529,119.928c2.781,2.39,7.291,2.391,10.073,0.001c0,0,0,0,0-0.001l24.902-21.395c2.781-2.391,2.781-6.266,0-8.657
	c-2.783-2.39-7.294-2.39-10.076,0l-24.899,21.394c-2.782,2.389-2.784,6.264-0.003,8.656
	C317.527,119.926,317.528,119.927,317.529,119.928z"/>
<path d="M418.631,32.519C375.986-4.06,306.904-4.009,264.333,32.632c-7.477,6.436-13.825,13.772-18.843,21.777
	C216.999,8.832,150.9-8.271,97.854,16.21S24.905,97.485,53.397,143.063c5.038,8.06,11.423,15.442,18.952,21.911l168.109,144.443
	c2.781,2.391,7.292,2.391,10.073,0.001c0.001,0,0.001-0.001,0.001-0.001l28.611-24.584c68.848,27.394,150.505,1.646,182.387-57.509
	c2.975-5.517,5.446-11.222,7.395-17.065c20.852-5.784,32.299-24.996,25.566-42.911c-3.918-10.427-13.429-18.601-25.566-21.967
	c-4.123-12.462-10.615-24.253-19.216-34.895C453.854,81.774,442.394,53.019,418.631,32.519L418.631,32.519z M245.49,296.432
	L82.424,156.32c-36.99-31.812-36.963-83.366,0.061-115.149c37.023-31.783,97.024-31.76,134.015,0.052
	c9.96,8.565,17.572,18.932,22.279,30.345c1.311,3.187,5.381,4.857,9.09,3.731c2.029-0.616,3.625-1.987,4.343-3.731
	c17.47-42.394,71.629-64.593,120.969-49.583c13.311,4.05,25.4,10.604,35.386,19.184c17.038,14.701,26.937,34.416,27.69,55.153
	c-52.442-47.11-139.404-48.771-194.233-3.71c-17.597,14.462-30.404,32.684-37.109,52.798c-20.828,5.83-32.212,25.064-25.427,42.96
	c3.926,10.355,13.375,18.475,25.427,21.848c9.489,28.699,31.321,53.225,61.072,68.607L245.49,296.432z M461.73,156.401
	c13.765,2.367,22.69,13.873,19.937,25.7c-2.013,8.644-9.877,15.401-19.937,17.13c-2.701,0.459-4.853,2.214-5.525,4.509
	c-16.681,56.607-83.61,90.875-149.491,76.542c-43.806-9.531-78.005-38.923-89.089-76.563c-0.67-2.288-2.811-4.041-5.502-4.506
	c-13.752-2.391-22.646-13.908-19.864-25.725c2.026-8.603,9.852-15.327,19.864-17.067c2.692-0.465,4.833-2.218,5.502-4.505
	c16.693-56.625,83.649-90.902,149.552-76.56c27.633,6.014,51.978,20.08,68.884,39.799c0.276,0.415,0.607,0.801,0.986,1.151
	c8.92,10.729,15.418,22.8,19.158,35.588C456.878,154.187,459.029,155.943,461.73,156.401L461.73,156.401z"/>
<path d="M451.614,328.989l-2.173,1.008c-10.668-10.841-28.873-14.985-42.776-8.93c-0.052,0.021-0.105,0.046-0.158,0.069
	l-5.766,2.669c-15.108-10.808-36.451-12.39-53.491-3.966l-32.773,15.312h-43.652c-9.391-0.012-18.659-1.837-27.119-5.341
	l-6.024-2.504c-35.163-14.702-76.957-11.195-108.145,9.073c-0.156,0.103-0.308,0.205-0.454,0.32l-14.539,11.126
	c-5.287,4.039-11.515,7.063-18.268,8.875l-8.096-22.82c-0.914-2.575-3.68-4.335-6.813-4.335h-70.33c-3.935,0-7.123,2.74-7.123,6.121
	c0,0.245,0.016,0.49,0.052,0.734L27.408,501.58c0.436,3.07,3.471,5.379,7.07,5.379h105.496c3.934,0,7.124-2.74,7.123-6.12
	c0-0.605-0.104-1.207-0.31-1.785l-13.736-38.713l42.777-23.234c5.647-2.68,12.268-3.414,18.521-2.055
	c0.147,0.032,0.297,0.061,0.447,0.083l87.801,13.893c23.983,3.686,48.709,0.686,70.566-8.561c0.302-0.129,0.593-0.275,0.871-0.439
	l151.858-89.593c3.105-1.833,4.014-5.43,2.068-8.203C496.324,325.58,471.497,319.746,451.614,328.989L451.614,328.989z
	 M413.178,331.953c7.522-3.231,16.932-0.733,23.196,4.102l-56.866,26.36l-2.786,1.262c-1.759-4.113-4.233-7.973-7.34-11.447
	L413.178,331.953z M354.137,330.555c0.057-0.026,0.117-0.052,0.169-0.081c10.004-4.968,22.317-5.029,32.389-0.164l-28.045,12.982
	c-5.157-3.188-10.973-5.506-17.135-6.834L354.137,330.555z M40.786,494.718L19.081,341.784h57.011l54.264,152.934H40.786z
	 M346.391,429.683c-18.999,7.938-40.44,10.494-61.238,7.301l-87.568-13.856c-9.771-2.066-20.09-0.862-28.866,3.367
	c-0.111,0.053-0.222,0.109-0.33,0.168l-39.646,21.541l-28.308-79.782c8.72-2.331,16.76-6.233,23.582-11.45l14.32-10.953
	c26.911-17.373,62.875-20.34,93.141-7.687l6.024,2.504c10.396,4.306,21.784,6.548,33.323,6.561h58.412
	c17.157,0.021,31.963,10.34,35.526,24.76l-41.593-1.62c-15.428-0.597-30.886,0.018-46.183,1.835
	c-3.892,0.497-6.577,3.61-5.999,6.953c0.569,3.297,4.105,5.597,7.954,5.172c14.434-1.715,29.021-2.294,43.577-1.729l49.822,1.939
	c0.106,0,0.214,0.006,0.322,0.006c3.935,0,7.123-2.741,7.123-6.121c0-0.816-0.032-1.619-0.082-2.423l6.501-2.946l72.172-33.453
	c10.948-5.097,24.498-3.373,33.261,4.229L346.391,429.683z"/>
</svg>
