<?xml version="1.0" encoding="utf-8"?>
<!-- Generator: Adobe Illustrator 16.0.0, SVG Export Plug-In . SVG Version: 6.00 Build 0)  -->
<!DOCTYPE svg PUBLIC "-//W3C//DTD SVG 1.1//EN" "http://www.w3.org/Graphics/SVG/1.1/DTD/svg11.dtd" [
	<!ENTITY ns_extend "http://ns.adobe.com/Extensibility/1.0/">
	<!ENTITY ns_ai "http://ns.adobe.com/AdobeIllustrator/10.0/">
	<!ENTITY ns_graphs "http://ns.adobe.com/Graphs/1.0/">
	<!ENTITY ns_vars "http://ns.adobe.com/Variables/1.0/">
	<!ENTITY ns_imrep "http://ns.adobe.com/ImageReplacement/1.0/">
	<!ENTITY ns_sfw "http://ns.adobe.com/SaveForWeb/1.0/">
	<!ENTITY ns_custom "http://ns.adobe.com/GenericCustomNamespace/1.0/">
	<!ENTITY ns_adobe_xpath "http://ns.adobe.com/XPath/1.0/">
]>
<svg version="1.1" id="Layer_1" xmlns:x="&ns_extend;" xmlns:i="&ns_ai;" xmlns:graph="&ns_graphs;"
	 xmlns="http://www.w3.org/2000/svg" xmlns:xlink="http://www.w3.org/1999/xlink" x="0px" y="0px" width="512px" height="512px"
	 viewBox="0 0 512 512" enable-background="new 0 0 512 512" xml:space="preserve">
<metadata>
	<sfw  xmlns="&ns_sfw;">
		<slices></slices>
		<sliceSourceBounds  height="509.5" width="512" y="47" x="343.5" bottomLeftOrigin="true"></sliceSourceBounds>
	</sfw>
</metadata>
<path fill="#FFFFFF" d="M443.348,121.475c19.977-11.628,33.342-32.23,33.342-55.733C476.689,29.493,445.008,0,406.069,0
	s-70.621,29.493-70.621,65.742c0,23.462,13.313,44.031,33.236,55.667c-22.616,7.963-41.923,23.043-54.29,42.921
	c-6.55-4.051-13.647-7.363-21.115-9.993c19.978-11.62,33.342-32.222,33.342-55.725c0-36.249-31.683-65.742-70.621-65.742
	s-70.621,29.493-70.621,65.742c0,23.503,13.365,44.105,33.341,55.733c-7.467,2.622-14.565,5.941-21.115,9.993
	c-12.367-19.879-31.665-34.958-54.281-42.921c19.915-11.637,33.227-32.214,33.227-55.676C176.552,29.493,144.87,0,105.931,0
	S35.311,29.493,35.311,65.742c0,23.503,13.365,44.105,33.341,55.733C28.601,135.56,0,171.512,0,213.661v65.742
	c0,18.129,15.837,32.871,35.311,32.871h8.827v131.483c0,18.129,15.837,32.871,35.311,32.871c10.602,0,20.003-4.454,26.483-11.356
	c6.479,6.902,15.881,11.356,26.482,11.356c19.474,0,35.311-14.742,35.311-32.871V340.576c5.217,2.826,11.193,4.569,17.655,4.569
	h8.828v131.483c0,18.129,15.836,32.871,35.31,32.871c10.602,0,20.003-4.454,26.483-11.356c6.479,6.902,15.882,11.356,26.482,11.356
	c19.475,0,35.311-14.742,35.311-32.871V345.146h8.828c6.461,0,12.438-1.743,17.654-4.569v103.182
	c0,18.129,15.837,32.871,35.311,32.871c10.602,0,20.004-4.454,26.483-11.356c6.479,6.902,15.881,11.356,26.482,11.356
	c19.474,0,35.311-14.742,35.311-32.871V312.274h8.827c19.475,0,35.311-14.742,35.311-32.871v-65.742
	C512,171.512,483.398,135.56,443.348,121.475z M387.037,133.637c6.196-1.282,12.525-2.153,19.032-2.153
	c6.576,0,12.968,0.723,19.146,2.005l-19.146,24.949L387.037,133.637z M394.531,171.685l-11.538,10.741l-16.984-41.779
	c1.148-0.542,2.233-1.191,3.408-1.693L394.531,171.685z M417.598,171.685l25.088-32.698c1.175,0.501,2.331,1.019,3.479,1.562
	l-17.037,41.877L417.598,171.685z M353.104,65.742c0-27.192,23.754-49.306,52.966-49.306c29.211,0,52.965,22.114,52.965,49.306
	c0,27.193-23.754,49.307-52.965,49.307C376.857,115.048,353.104,92.935,353.104,65.742z M264.634,227.886L256,239.934l-8.634-12.047
	l5.014-63.367c1.21-0.042,2.402-0.165,3.62-0.165s2.409,0.123,3.618,0.172L264.634,227.886z M203.035,98.613
	c0-27.192,23.754-49.306,52.965-49.306s52.966,22.114,52.966,49.306c0,27.193-23.755,49.307-52.966,49.307
	S203.035,125.806,203.035,98.613z M105.931,131.484c5.481,0,10.831,0.633,16.093,1.545c-2.772,8.719-9.04,14.891-16.093,14.891
	c-7.08,0-13.374-6.221-16.128-14.998C95.038,132.018,100.414,131.484,105.931,131.484z M52.965,65.742
	c0-27.192,23.755-49.306,52.966-49.306c29.21,0,52.965,22.114,52.965,49.306c0,27.193-23.755,49.307-52.965,49.307
	C76.72,115.048,52.965,92.935,52.965,65.742z M150.069,443.758c0,9.064-7.918,16.436-17.655,16.436
	c-9.737,0-17.655-7.371-17.655-16.436V271.186H97.104v172.572c0,9.064-7.918,16.436-17.655,16.436
	c-9.737,0-17.655-7.371-17.655-16.436V180.791H44.138v115.048h-8.827c-9.737,0-17.655-7.371-17.655-16.436v-65.742
	c0-34.44,22.907-63.95,55.261-76.153c4.97,15.802,17.832,26.847,33.015,26.847c15.139,0,27.957-10.979,32.971-26.708
	c18.847,7.101,34.692,20.109,44.588,37.194c-20.524,17.989-33.421,43.439-33.421,71.691v25.097v40.646V443.758z M326.621,328.71
	h-8.828V213.661h-17.655v262.968c0,9.064-7.918,16.436-17.655,16.436c-9.736,0-17.655-7.371-17.655-16.436V304.057h-17.655v172.572
	c0,9.064-7.918,16.436-17.655,16.436c-9.737,0-17.655-7.371-17.655-16.436V213.661h-17.655V328.71h-8.828
	c-9.737,0-17.655-7.371-17.655-16.436v-40.646v-25.097c0-38.393,28.478-70.631,66.771-79.605l-5.172,65.38L256,269.566
	l26.677-37.259l-5.173-65.38c38.294,8.974,66.771,41.212,66.771,79.605v24.653v41.089
	C344.275,321.339,336.357,328.71,326.621,328.71z M494.345,279.403c0,9.064-7.918,16.436-17.655,16.436h-8.827V189.008h-17.655
	v254.75c0,9.064-7.918,16.436-17.655,16.436s-17.655-7.371-17.655-16.436V271.186h-17.655v172.572
	c0,9.064-7.918,16.436-17.655,16.436c-9.736,0-17.655-7.371-17.655-16.436V312.274v-41.089v-24.653
	c0-28.252-12.896-53.703-33.421-71.691c5.676-9.804,13.26-18.276,22.334-25.056l25.326,62.25l29.899-27.833l29.898,27.833
	l25.362-62.356c20.1,15.08,33.015,38.139,33.015,63.983V279.403z"/>
</svg>
