<?xml version="1.0" encoding="utf-8"?>
<!-- Generator: Adobe Illustrator 16.0.0, SVG Export Plug-In . SVG Version: 6.00 Build 0)  -->
<!DOCTYPE svg PUBLIC "-//W3C//DTD SVG 1.1//EN" "http://www.w3.org/Graphics/SVG/1.1/DTD/svg11.dtd" [
	<!ENTITY ns_extend "http://ns.adobe.com/Extensibility/1.0/">
	<!ENTITY ns_ai "http://ns.adobe.com/AdobeIllustrator/10.0/">
	<!ENTITY ns_graphs "http://ns.adobe.com/Graphs/1.0/">
	<!ENTITY ns_vars "http://ns.adobe.com/Variables/1.0/">
	<!ENTITY ns_imrep "http://ns.adobe.com/ImageReplacement/1.0/">
	<!ENTITY ns_sfw "http://ns.adobe.com/SaveForWeb/1.0/">
	<!ENTITY ns_custom "http://ns.adobe.com/GenericCustomNamespace/1.0/">
	<!ENTITY ns_adobe_xpath "http://ns.adobe.com/XPath/1.0/">
]>
<svg version="1.1" id="Capa_1" xmlns:x="&ns_extend;" xmlns:i="&ns_ai;" xmlns:graph="&ns_graphs;"
	 xmlns="http://www.w3.org/2000/svg" xmlns:xlink="http://www.w3.org/1999/xlink" x="0px" y="0px" width="1200px" height="1200px"
	 viewBox="0 0 1200 1200" enable-background="new 0 0 1200 1200" xml:space="preserve">
<metadata>
	<sfw  xmlns="&ns_sfw;">
		<slices></slices>
		<sliceSourceBounds  height="1200" width="984.376" y="-299.5" x="107.312" bottomLeftOrigin="true"></sliceSourceBounds>
		<optimizationSettings>
			<targetSettings  fileFormat="PNG24Format" targetSettingsID="0">
				<PNG24Format  transparency="true" interlaced="false" noMatteColor="false" matteColor="#FFFFFF" filtered="false">
					</PNG24Format>
			</targetSettings>
		</optimizationSettings>
	</sfw>
</metadata>
<g>
	<g>
		<path fill="#FFFFFF" d="M834.375,1005.469c-12.938,0-23.438,10.5-23.438,23.438c0,12.938,10.5,23.438,23.438,23.438
			s23.438-10.5,23.438-23.438C857.813,1015.969,847.313,1005.469,834.375,1005.469z"/>
	</g>
</g>
<g>
	<g>
		<path fill="#FFFFFF" d="M365.625,1005.469c-12.938,0-23.438,10.5-23.438,23.438c0,12.938,10.5,23.438,23.438,23.438
			s23.438-10.5,23.438-23.438C389.063,1015.969,378.563,1005.469,365.625,1005.469z"/>
	</g>
</g>
<g>
	<g>
		<path fill="#FFFFFF" d="M1049.168,884.086c-26.384-40.838-62.639-73.287-105.11-94.242c-3.58-3.326-8.187-5.555-13.308-6.124
			c-30.72-13.041-63.101-19.657-96.375-19.657h-70.313v-61.835c40.689-34.913,69.942-81.154,84.127-132.695h9.623
			c51.693,0,93.75-42.058,93.75-93.75c0-24.497-9.455-46.818-24.896-63.539c1.475-1.251,2.913-2.556,4.296-3.936
			c13.285-13.284,20.6-30.939,20.6-49.713c0-30.851-19.981-57.107-47.679-66.553C895.604,184.266,819.963,92.166,715.818,63.3
			C709.647,31.069,683.049,0,646.875,0h-93.75c-36.174,0-62.772,31.069-68.943,63.3C380.046,92.163,304.413,184.247,296.119,292.008
			c-10.083,3.419-19.329,9.122-27.082,16.873c-13.284,13.285-20.599,30.94-20.599,49.713c0,21.477,9.689,40.724,24.914,53.63
			c-15.45,16.721-24.914,39.053-24.914,63.559c0,51.692,42.056,93.75,93.75,93.75h9.558c11.841,43.023,34.292,82.522,65.611,115.149
			c5.885,6.138,12.125,11.981,18.582,17.527v61.854h-70.313c-33.276,0-65.658,6.616-96.375,19.654
			c-5.119,0.572-9.727,2.799-13.306,6.125c-42.476,20.957-78.729,53.406-105.112,94.242c-28.144,43.563-43.02,93.642-43.02,144.822
			v147.656c0,12.941,10.493,23.438,23.438,23.438h937.5c12.944,0,23.438-10.495,23.438-23.438v-147.656
			C1092.188,977.726,1077.312,927.646,1049.168,884.086z M248.438,1153.125h-93.75v-124.219c0-71.29,36.521-139.619,93.75-180.184
			V1153.125z M857.813,522.656h-1.068c0.698-7.798,1.068-15.623,1.068-23.438v-70.313c25.847,0,46.875,21.027,46.875,46.875
			C904.688,501.627,883.659,522.656,857.813,522.656z M482.813,112.826v105.143c0,12.944,10.492,23.438,23.438,23.438
			s23.438-10.493,23.438-23.438V82.179c0-0.061,0-0.122,0-0.183v-4.652c0-14.521,12.269-30.469,23.438-30.469h93.75
			c11.17,0,23.438,15.947,23.438,30.469v4.652c0,0.061,0,0.122,0,0.183v135.79c0,12.944,10.492,23.438,23.438,23.438
			s23.438-10.493,23.438-23.438V112.826c75.681,26.782,130.313,95.267,139.314,175.456H343.498
			C352.5,208.092,407.133,139.608,482.813,112.826z M342.188,522.656c-25.847,0-46.875-21.028-46.875-46.875
			c0-25.848,21.028-46.875,46.875-46.875v70.313c0,7.814,0.37,15.644,1.068,23.438L342.188,522.656L342.188,522.656z
			 M342.188,382.031H318.75c-12.924,0-23.438-10.515-23.438-23.438c0-6.253,2.439-12.138,6.869-16.564
			c4.433-4.433,10.315-6.872,16.568-6.872h562.5c12.924,0,23.438,10.514,23.438,23.438c0,6.253-2.438,12.139-6.868,16.565
			c-4.431,4.432-10.315,6.872-16.568,6.872h-23.438h-23.438h-468.75H342.188z M393.321,541.835
			c-0.047-0.255-0.092-0.509-0.147-0.759c-2.722-13.756-4.111-27.835-4.111-41.857v-70.313h421.875v70.313
			c0,14.012-1.391,28.08-4.111,41.849c-0.057,0.253-0.102,0.509-0.147,0.764c-10.474,52.282-39.462,99.082-81.673,131.815
			c-36.67,28.484-79.896,43.542-125.006,43.542s-88.336-15.058-125.041-43.568c-8.402-6.501-16.398-13.694-23.777-21.389
			C421.615,621.429,401.618,583.271,393.321,541.835z M576.563,1153.125h-187.5v-53.906c0-12.943-10.493-23.438-23.438-23.438
			s-23.438,10.493-23.438,23.438v53.906h-46.875V823.768c15.211-5.734,30.881-9.559,46.875-11.441v146.269
			c0,12.944,10.493,23.438,23.438,23.438s23.438-10.493,23.438-23.438V810.938h60.27l127.23,133.595V1153.125z M482.813,778.125
			v-43.654c36.166,19.441,76,29.592,117.188,29.592c41.189,0,81.025-10.152,117.188-29.59v43.652L600,901.172L482.813,778.125z
			 M904.688,1153.125h-46.875v-53.906c0-12.943-10.493-23.438-23.438-23.438s-23.438,10.493-23.438,23.438v53.906h-187.5V944.531
			l127.23-133.594h60.27v147.655c0,12.944,10.493,23.438,23.438,23.438s23.438-10.493,23.438-23.438V812.325
			c15.993,1.884,31.661,5.709,46.875,11.444V1153.125z M1045.313,1153.125h-93.75V848.721
			c57.229,40.563,93.75,108.895,93.75,180.187V1153.125z"/>
	</g>
</g>
</svg>
