<?xml version="1.0" encoding="utf-8"?>
<!-- Generator: Adobe Illustrator 16.0.0, SVG Export Plug-In . SVG Version: 6.00 Build 0)  -->
<!DOCTYPE svg PUBLIC "-//W3C//DTD SVG 1.1//EN" "http://www.w3.org/Graphics/SVG/1.1/DTD/svg11.dtd" [
	<!ENTITY ns_extend "http://ns.adobe.com/Extensibility/1.0/">
	<!ENTITY ns_ai "http://ns.adobe.com/AdobeIllustrator/10.0/">
	<!ENTITY ns_graphs "http://ns.adobe.com/Graphs/1.0/">
	<!ENTITY ns_vars "http://ns.adobe.com/Variables/1.0/">
	<!ENTITY ns_imrep "http://ns.adobe.com/ImageReplacement/1.0/">
	<!ENTITY ns_sfw "http://ns.adobe.com/SaveForWeb/1.0/">
	<!ENTITY ns_custom "http://ns.adobe.com/GenericCustomNamespace/1.0/">
	<!ENTITY ns_adobe_xpath "http://ns.adobe.com/XPath/1.0/">
]>
<svg version="1.1" id="Layer_1" xmlns:x="&ns_extend;" xmlns:i="&ns_ai;" xmlns:graph="&ns_graphs;"
	 xmlns="http://www.w3.org/2000/svg" xmlns:xlink="http://www.w3.org/1999/xlink" x="0px" y="0px" width="512px" height="512px"
	 viewBox="0 0 512 512" enable-background="new 0 0 512 512" xml:space="preserve">
<metadata>
	<sfw  xmlns="&ns_sfw;">
		<slices></slices>
		<sliceSourceBounds  width="511.719" height="512" x="-156.36" y="-155.5" bottomLeftOrigin="true"></sliceSourceBounds>
		<optimizationSettings>
			<targetSettings  fileFormat="PNG24Format" targetSettingsID="0">
				<PNG24Format  transparency="true" interlaced="false" noMatteColor="false" matteColor="#FFFFFF" filtered="false">
					</PNG24Format>
			</targetSettings>
		</optimizationSettings>
	</sfw>
</metadata>
<title>006 - Home Insurance</title>
<desc>Created with Sketch.</desc>
<g id="Page-1">
	<g id="_x30_06---Home-Insurance">
		<path id="Shape" d="M35.908,335.719c4.516,9.957,10.792,19.016,18.526,26.743l52.6,52.591c-2.966,3.141-4.624,7.294-4.634,11.614
			v68.267c0,9.426,7.641,17.066,17.067,17.066h93.867c9.425,0,17.066-7.641,17.066-17.066v-68.267
			c0-9.426-7.641-17.067-17.066-17.067v-15.88c0.26-20.208-6.33-39.909-18.697-55.894c-7.256-9.543-17.146-16.754-28.45-20.744
			c-17.97-7.553-34.496-18.16-48.845-31.352c-13.317-11.006-32.253-12.044-46.694-2.561l-18.415-42.991
			c-3.925-8.892-12.295-15.013-21.958-16.06c-9.663-1.046-19.15,3.142-24.887,10.987c-5.738,7.845-6.854,18.155-2.929,27.046
			L35.908,335.719z M213.333,494.934h-93.867v-68.267h93.867V494.934z M18.696,245.401c1.849-2.922,5.076-4.681,8.534-4.65
			c4.062-0.007,7.734,2.416,9.327,6.152l19.081,44.519c5.071,11.874,12.375,22.665,21.513,31.787l38.989,38.988
			c2.143,2.219,5.315,3.107,8.299,2.327s5.313-3.11,6.094-6.095c0.781-2.983-0.109-6.156-2.327-8.299l-38.989-38.988
			c-3.917-3.91-7.438-8.198-10.513-12.801c8.196-6.311,19.666-6.119,27.648,0.461c15.947,14.641,34.381,26.316,54.434,34.475
			c8.161,2.974,15.277,8.261,20.48,15.215c9.963,12.95,15.25,28.891,15.001,45.228v15.88h-70.562L66.5,350.396
			c-6.287-6.28-11.389-13.644-15.062-21.734l-33.451-73.565C16.536,251.958,16.804,248.294,18.696,245.401z"/>
		<path id="Shape_1_" d="M187.733,452.267H179.2c-4.713,0-8.534,3.82-8.534,8.533s3.821,8.533,8.534,8.533h8.533
			c4.713,0,8.533-3.82,8.533-8.533S192.446,452.267,187.733,452.267z"/>
		<path id="Shape_2_" d="M345.813,317.082c-11.304,3.99-21.193,11.201-28.45,20.744c-12.367,15.984-18.957,35.686-18.696,55.894
			v15.88c-9.426,0-17.067,7.642-17.067,17.067v68.267c0,9.426,7.642,17.066,17.067,17.066h93.866
			c9.426,0,17.066-7.641,17.066-17.066v-68.267c-0.01-4.32-1.667-8.474-4.633-11.614l52.599-52.591
			c7.732-7.726,14.009-16.782,18.526-26.735l33.45-73.574c3.926-8.891,2.81-19.201-2.929-27.046
			c-5.737-7.845-15.225-12.033-24.888-10.987c-9.662,1.047-18.033,7.168-21.958,16.06l-18.415,42.965
			c-14.437-9.488-33.373-8.449-46.686,2.561C380.314,298.904,363.786,309.52,345.813,317.082z M392.533,494.934h-93.866v-68.267
			h93.866V494.934z M433.289,298.342c-3.071,4.604-6.59,8.891-10.505,12.801l-38.989,38.988c-3.233,3.349-3.188,8.671,0.104,11.963
			c3.291,3.291,8.613,3.338,11.962,0.104l38.989-38.988c9.138-9.122,16.44-19.913,21.512-31.787l19.09-44.527
			c1.597-3.732,5.268-6.15,9.326-6.144c3.447,0.002,6.656,1.755,8.522,4.652c1.867,2.897,2.135,6.544,0.711,9.684l-33.45,73.574
			c-3.674,8.091-8.775,15.454-15.062,21.734L386.296,409.6h-70.563v-15.88c-0.259-16.333,5.017-32.272,14.968-45.228
			c5.202-6.954,12.319-12.241,20.479-15.215c20.055-8.16,38.491-19.835,54.442-34.475
			C413.608,292.214,425.089,292.023,433.289,298.342z"/>
		<path id="Shape_3_" d="M332.8,452.267h-8.533c-4.713,0-8.533,3.82-8.533,8.533s3.82,8.533,8.533,8.533h8.533
			c4.713,0,8.533-3.82,8.533-8.533S337.513,452.267,332.8,452.267z"/>
		<path id="Shape_4_" d="M115.652,161.28c2.899,1.431,6.358,1.101,8.935-0.853l11.946-8.96v121.6
			c0,9.426,7.641,17.066,17.067,17.066h204.8c9.426,0,17.066-7.641,17.066-17.066v-121.6l11.946,8.96
			c2.586,1.939,6.046,2.251,8.937,0.806s4.717-4.4,4.717-7.632v-42.667c0-2.686-1.265-5.215-3.413-6.827L261.12,1.707
			c-3.034-2.275-7.206-2.275-10.24,0l-63.146,47.36V34.133c0-9.426-7.641-17.066-17.067-17.066H153.6
			c-9.426,0-17.067,7.641-17.067,17.066v53.333l-22.187,16.64c-2.149,1.612-3.414,4.141-3.414,6.827V153.6
			C110.916,156.85,112.745,159.828,115.652,161.28z M221.867,273.066V204.8c0-18.851,15.282-34.133,34.133-34.133
			c18.852,0,34.133,15.282,34.133,34.133v68.267H221.867z M358.4,273.066h-51.2V204.8c0-28.277-22.923-51.2-51.2-51.2
			c-28.277,0-51.2,22.923-51.2,51.2v68.267h-51.2v-134.4l102.4-76.8l102.4,76.8V273.066z M153.6,34.133h17.066v27.733l-17.066,12.8
			V34.133z M128,115.2l128-96l128,96v21.333l-122.88-92.16c-3.034-2.276-7.206-2.276-10.24,0L128,136.533V115.2z"/>
	</g>
</g>
</svg>
